# xmcd
#
# Track frame offsets: 
#        150
#        17091
#        34483
#        49338
#        67123
#        83528
#        100043
#        117280
#        141080
#        152022
#        165207
#        193808
#        205332
#        214751
#        233051
#        246809
#
# Disc length: 3453 seconds
#
# Revision: 2
# Processed by: cddbd v1.5.2PL0 Copyright (c) Steve Scherf et al.
# Submitted via: ExactAudioCopyFreeDBPlugin 1.0
#
DISCID=d90d7b10
DTITLE=Schorsch Hampel - Sog Gscheid
DYEAR=2015
DGENRE=Blues
TTITLE0=Sog gscheid
TTITLE1=Arm um mi
TTITLE2=Glaab i ned
TTITLE3=Mei Blues
TTITLE4=Allerweirau
TTITLE5=Rubikon
TTITLE6=Talisman
TTITLE7=A Freind von mia
TTITLE8=Voiamond
TTITLE9=Schuiweg
TTITLE10=I und I
TTITLE11=Aus und vorbei
TTITLE12=Sven sei Schrott
TTITLE13=End vom Dog
TTITLE14=Wia mi des gfreid
TTITLE15=Da Deifi wui mi ned
EXTD=
EXTT0=
EXTT1=
EXTT2=
EXTT3=
EXTT4=
EXTT5=
EXTT6=
EXTT7=
EXTT8=
EXTT9=
EXTT10=
EXTT11=
EXTT12=
EXTT13=
EXTT14=
EXTT15=
PLAYORDER=
